<mxfile host="app.diagrams.net" agent="Mozilla/5.0 (Macintosh; Intel Mac OS X 10_15_7) AppleWebKit/605.1.15 (KHTML, like Gecko) Version/17.5 Safari/605.1.15" version="24.7.12">
  <diagram name="第 1 页" id="tCek6PSi_kYoVfcrGFQ0">
    <mxGraphModel dx="954" dy="1190" grid="1" gridSize="10" guides="1" tooltips="1" connect="1" arrows="1" fold="1" page="1" pageScale="1" pageWidth="827" pageHeight="1169" math="0" shadow="0">
      <root>
        <mxCell id="0" />
        <mxCell id="1" parent="0" />
        <mxCell id="M_OW2C_WQbv7Tq3-Faa6-1" value="LLM" style="rounded=1;whiteSpace=wrap;html=1;fillColor=#fff2cc;strokeColor=#d6b656;fontSize=16;" vertex="1" parent="1">
          <mxGeometry x="250" y="390" width="120" height="60" as="geometry" />
        </mxCell>
        <mxCell id="M_OW2C_WQbv7Tq3-Faa6-6" style="edgeStyle=orthogonalEdgeStyle;rounded=0;orthogonalLoop=1;jettySize=auto;html=1;entryX=0;entryY=0.5;entryDx=0;entryDy=0;fontSize=16;" edge="1" parent="1" source="M_OW2C_WQbv7Tq3-Faa6-2" target="M_OW2C_WQbv7Tq3-Faa6-1">
          <mxGeometry relative="1" as="geometry" />
        </mxCell>
        <mxCell id="M_OW2C_WQbv7Tq3-Faa6-2" value="prompt(s)" style="rounded=1;whiteSpace=wrap;html=1;fillColor=#ffe6cc;strokeColor=#d79b00;fontSize=16;" vertex="1" parent="1">
          <mxGeometry x="80" y="390" width="120" height="60" as="geometry" />
        </mxCell>
        <mxCell id="M_OW2C_WQbv7Tq3-Faa6-3" value="final ouput" style="rounded=1;whiteSpace=wrap;html=1;fillColor=#d5e8d4;strokeColor=#82b366;fontSize=16;" vertex="1" parent="1">
          <mxGeometry x="650" y="390" width="120" height="60" as="geometry" />
        </mxCell>
        <mxCell id="M_OW2C_WQbv7Tq3-Faa6-11" style="edgeStyle=orthogonalEdgeStyle;rounded=0;orthogonalLoop=1;jettySize=auto;html=1;entryX=0;entryY=0.5;entryDx=0;entryDy=0;fontSize=16;" edge="1" parent="1" source="M_OW2C_WQbv7Tq3-Faa6-5" target="M_OW2C_WQbv7Tq3-Faa6-10">
          <mxGeometry relative="1" as="geometry" />
        </mxCell>
        <mxCell id="M_OW2C_WQbv7Tq3-Faa6-5" value="outputs" style="strokeWidth=2;html=1;shape=mxgraph.flowchart.multi-document;whiteSpace=wrap;fillColor=#f8cecc;strokeColor=#b85450;fontSize=16;" vertex="1" parent="1">
          <mxGeometry x="400" y="390" width="88" height="60" as="geometry" />
        </mxCell>
        <mxCell id="M_OW2C_WQbv7Tq3-Faa6-7" style="edgeStyle=orthogonalEdgeStyle;rounded=0;orthogonalLoop=1;jettySize=auto;html=1;entryX=0;entryY=0.5;entryDx=0;entryDy=0;entryPerimeter=0;fontSize=16;" edge="1" parent="1" source="M_OW2C_WQbv7Tq3-Faa6-1" target="M_OW2C_WQbv7Tq3-Faa6-5">
          <mxGeometry relative="1" as="geometry" />
        </mxCell>
        <mxCell id="M_OW2C_WQbv7Tq3-Faa6-12" style="edgeStyle=orthogonalEdgeStyle;rounded=0;orthogonalLoop=1;jettySize=auto;html=1;entryX=0;entryY=0.5;entryDx=0;entryDy=0;fontSize=16;" edge="1" parent="1" source="M_OW2C_WQbv7Tq3-Faa6-10" target="M_OW2C_WQbv7Tq3-Faa6-3">
          <mxGeometry relative="1" as="geometry" />
        </mxCell>
        <mxCell id="M_OW2C_WQbv7Tq3-Faa6-10" value="vote" style="shape=lineEllipse;line=vertical;perimeter=ellipsePerimeter;whiteSpace=wrap;html=1;backgroundOutline=1;fillColor=#f8cecc;strokeColor=#b85450;fontSize=16;" vertex="1" parent="1">
          <mxGeometry x="540" y="390" width="60" height="60" as="geometry" />
        </mxCell>
      </root>
    </mxGraphModel>
  </diagram>
</mxfile>
